<svg xmlns="http://www.w3.org/2000/svg" width="24" height="24" viewBox="0 0 24 24"><defs><style>.a{fill:#fff;}</style></defs><g transform="translate(0)"><path class="a" d="M18.056,13.5V2.5A2.507,2.507,0,0,0,15.548,0H4.515A.5.5,0,0,0,4.16.146l-4.012,4A.5.5,0,0,0,0,4.5v17A2.507,2.507,0,0,0,2.509,24H15.548a2.507,2.507,0,0,0,2.508-2.5v-1h-1v1a1.5,1.5,0,0,1-1.5,1.5H2.509A1.5,1.5,0,0,1,1,21.5V4.707L4.722,1H15.548a1.5,1.5,0,0,1,1.5,1.5v11Z" transform="translate(-0.001)"/></g><g transform="translate(2.477 0.495)"><path class="a" d="M54.82,10.667V13.64a.5.5,0,0,1-.5.5h-.991v.991h.991a1.486,1.486,0,0,0,1.486-1.486V10.667Z" transform="translate(-53.334 -10.667)"/></g><g transform="translate(14.091 10.623)"><path class="a" d="M308.434,225.519l-1.372-1.372a.5.5,0,0,0-.7,0l-7.546,7.546a.5.5,0,0,0,0,.7l1.372,1.372a.5.5,0,0,0,.7,0l7.546-7.546A.5.5,0,0,0,308.434,225.519Zm-7.9,7.2-.671-.671,6.846-6.846.671.671Z" transform="translate(-298.67 -224.002)"/></g><g transform="translate(14.012 18.55)"><path class="a" d="M299.659,395.658v-.991h-.991v1.486a.5.5,0,0,0,.5.5h1.486v-.991Z" transform="translate(-298.668 -394.667)"/></g><g transform="translate(13.514 1.982)"><path class="a" d="M288.992,42.667H288v.991h.991a.5.5,0,0,1,.5.5v.991h.991v-.991A1.486,1.486,0,0,0,288.992,42.667Z" transform="translate(-288.001 -42.667)"/></g><g transform="translate(4.525 7.044)"><path class="a" d="M104.424,149.333H96.5a.5.5,0,0,0-.5.5v6.936a.5.5,0,0,0,.277.446l3.446,1.685a1.5,1.5,0,0,0,.743.2h0a1.411,1.411,0,0,0,.7-.182l3.472-1.7a.5.5,0,0,0,.277-.446v-6.936A.5.5,0,0,0,104.424,149.333Zm-.5,7.123-3.223,1.58a.515.515,0,0,1-.519-.015l-3.195-1.565v-6.132h6.936v6.132Z" transform="translate(-96.001 -149.333)"/></g><g transform="translate(6.663 9.739)"><path class="a" d="M146.251,207.413l-2.623,2.622-1.136-1.136-.7.7,1.486,1.486a.5.5,0,0,0,.7,0l2.973-2.973Z" transform="translate(-141.792 -207.413)"/></g><g transform="translate(8.518 18.054)"><path class="a" d="M182.82,385.486a.5.5,0,0,1-.5-.5V384h-.991v.991a1.486,1.486,0,0,0,1.486,1.486h2.973v-.991Z" transform="translate(-181.334 -384)"/></g><g transform="translate(11.505 1.982)"><rect class="a" width="0.991" height="0.991"/></g></svg>